<svg id="visual" viewBox="0 0 960 540" width="960" height="540" xmlns="http://www.w3.org/2000/svg" xmlns:xlink="http://www.w3.org/1999/xlink" version="1.1"><rect x="0" y="0" width="960" height="540" fill="#FFB178"></rect><g transform="translate(457.9379187665073 263.6862826251587)"><path d="M140 -226.6C185.3 -216.3 228.6 -186.7 234.8 -145.7C241 -104.7 210 -52.3 213.4 2C216.8 56.2 254.5 112.5 250.6 157.4C246.7 202.3 201.1 235.8 152.4 242.7C103.7 249.6 51.8 229.8 11.9 209.1C-28 188.5 -56 167 -80.4 146.1C-104.7 125.1 -125.4 104.8 -144.1 80.5C-162.8 56.3 -179.4 28.1 -191.8 -7.2C-204.3 -42.5 -212.6 -85 -201.7 -122.8C-190.9 -160.6 -160.9 -193.8 -124.1 -209C-87.3 -224.3 -43.7 -221.6 1.8 -224.8C47.3 -228 94.7 -237 140 -226.6" fill="#F5A66B"></path></g></svg>