<svg id="visual" viewBox="0 0 960 540" width="960" height="540" xmlns="http://www.w3.org/2000/svg" xmlns:xlink="http://www.w3.org/1999/xlink" version="1.1"><rect x="0" y="0" width="960" height="540" fill="#FFB178"></rect><defs><linearGradient id="grad1_0" x1="43.8%" y1="100%" x2="100%" y2="0%"><stop offset="14.444444444444446%" stop-color="#ffb178" stop-opacity="1"></stop><stop offset="85.55555555555554%" stop-color="#ffb178" stop-opacity="1"></stop></linearGradient></defs><defs><linearGradient id="grad2_0" x1="0%" y1="100%" x2="56.3%" y2="0%"><stop offset="14.444444444444446%" stop-color="#ffb178" stop-opacity="1"></stop><stop offset="85.55555555555554%" stop-color="#ffb178" stop-opacity="1"></stop></linearGradient></defs><g transform="translate(960, 540)"><path d="M-324 0C-320.6 -33.4 -317.3 -66.7 -308.1 -100.1C-299 -133.5 -284 -167 -258.9 -188.1C-233.7 -209.2 -198.4 -218 -170.5 -234.6C-142.5 -251.3 -122 -275.8 -94.9 -292C-67.7 -308.2 -33.8 -316.1 0 -324L0 0Z" fill="#F5A66B"></path></g><g transform="translate(0, 0)"><path d="M324 0C302.4 27.4 280.8 54.7 274.9 89.3C268.9 123.9 278.5 165.7 262.1 190.4C245.8 215.1 203.5 222.7 172.2 237C140.9 251.4 120.5 272.5 93.6 288.2C66.8 303.8 33.4 313.9 0 324L0 0Z" fill="#F5A66B"></path></g></svg>