<svg id="visual" viewBox="0 0 960 540" width="960" height="540" xmlns="http://www.w3.org/2000/svg" xmlns:xlink="http://www.w3.org/1999/xlink" version="1.1"><rect x="0" y="0" width="960" height="540" fill="#FFB178"></rect><defs><linearGradient id="grad1_0" x1="43.8%" y1="100%" x2="100%" y2="0%"><stop offset="14.444444444444446%" stop-color="#ffb178" stop-opacity="1"></stop><stop offset="85.55555555555554%" stop-color="#ffb178" stop-opacity="1"></stop></linearGradient></defs><defs><linearGradient id="grad2_0" x1="0%" y1="100%" x2="56.3%" y2="0%"><stop offset="14.444444444444446%" stop-color="#ffb178" stop-opacity="1"></stop><stop offset="85.55555555555554%" stop-color="#ffb178" stop-opacity="1"></stop></linearGradient></defs><g transform="translate(960, 540)"><path d="M-189 0C-175.2 -15.8 -161.4 -31.5 -157.9 -51.3C-154.3 -71.1 -161 -94.9 -152.9 -111.1C-144.8 -127.3 -121.8 -135.9 -102.3 -140.8C-82.7 -145.6 -66.5 -146.7 -50.1 -154.1C-33.6 -161.5 -16.8 -175.2 0 -189L0 0Z" fill="#F5A66B"></path></g><g transform="translate(0, 0)"><path d="M189 0C182.3 18.9 175.5 37.7 166.4 54.1C157.3 70.4 145.8 84.3 135.1 98.2C124.4 112 114.4 125.9 102.3 140.8C90.1 155.6 75.8 171.5 58.4 179.7C41 188 20.5 188.5 0 189L0 0Z" fill="#F5A66B"></path></g></svg>